M48
INCH
T01C0.0200
T02C0.0400
T03C0.0300
T04C0.0600
T05C0.0450
T06C0.0350
T07C0.1280
%
T01
X-003250Y+011500
X-000895Y+015247
X-008000Y+010250
X-019750Y+003000
X-019000Y+006500
X-028000Y+014250
T02
X-000893Y+002090
X-000893Y+001090
X-001893Y+002090
X-001893Y+001090
X-002893Y+002090
X-002893Y+001090
X-003893Y+002090
X-003893Y+001090
X-004893Y+002090
X-004893Y+001090
X-005893Y+002090
X-005893Y+001090
X-006893Y+002090
X-006893Y+001090
X-007893Y+002090
X-007893Y+001090
X-008893Y+002090
X-008893Y+001090
X-009893Y+002090
X-009893Y+001090
X-010893Y+002090
X-010893Y+001090
X-011893Y+002090
X-011893Y+001090
X-012893Y+002090
X-012893Y+001090
X-004500Y+007500
X-005500Y+007500
X-006500Y+007500
X-007500Y+007500
X-008500Y+007500
T03
X-010094Y+012870
X-010094Y+010870
X-016000Y+021000
X-016000Y+020000
X-016000Y+019000
X-013000Y+019000
X-013000Y+020000
X-013000Y+021000
X-018750Y+015500
X-018750Y+016500
X-018750Y+017500
X-021750Y+017500
X-021750Y+016500
X-021750Y+015500
T04
X-028346Y+001377
X-031496Y+001259
X-028346Y+003661
X-031496Y+003779
T05
X-032086Y+002519
X-029330Y+002519
X-024500Y+019750
X-019750Y+012250
X-016250Y+011750
X-025000Y+006750
X-010750Y+020000
X-017850Y+021250
X-023250Y+006000
X-027000Y+005750
X-001750Y+013500
X-009750Y+014750
X-012900Y+007000
T06
X-027775Y+018269
X-026775Y+017769
X-027775Y+017269
X-026775Y+016769
T07
X-030275Y+019519
X-030275Y+015519
M30
