M48
INCH
T01C0.0200
T02C0.0400
T03C0.0300
T04C0.0600
T05C0.0450
T06C0.0350
T07C0.1280
%
T01
X+013482Y+000492
X+008732Y-000757
X-003017Y-008007
X-002267Y-004507
X-011267Y+003242
X+015836Y+004239
X+009250Y+006500
X+013500Y-007000
T02
X+015838Y-008917
X+015838Y-009917
X+014838Y-008917
X+014838Y-009917
X+013838Y-008917
X+013838Y-009917
X+012838Y-008917
X+012838Y-009917
X+011838Y-008917
X+011838Y-009917
X+010838Y-008917
X+010838Y-009917
X+009838Y-008917
X+009838Y-009917
X+008838Y-008917
X+008838Y-009917
X+007838Y-008917
X+007838Y-009917
X+006838Y-008917
X+006838Y-009917
X+005838Y-008917
X+005838Y-009917
X+004838Y-008917
X+004838Y-009917
X+003838Y-008917
X+003838Y-009917
X+012232Y-003507
X+011232Y-003507
X+010232Y-003507
X+009232Y-003507
X+008232Y-003507
T03
X+006637Y+001862
X+006637Y-000137
X+000732Y+009992
X+000732Y+008992
X+000732Y+007992
X+003732Y+007992
X+003732Y+008992
X+003732Y+009992
X-002017Y+004492
X-002017Y+005492
X-002017Y+006492
X-005017Y+006492
X-005017Y+005492
X-005017Y+004492
T04
X-011614Y-009629
X-014763Y-009748
X-011614Y-007346
X-014763Y-007228
T05
X-015354Y-008488
X-012598Y-008488
X-007767Y+008742
X-003017Y+001242
X+000482Y+000742
X-008267Y-004257
X+005982Y+008992
X-001117Y+010242
X-006517Y-005007
X-010267Y-005257
X+014982Y+002492
X+006982Y+003742
X+003832Y-004007
X+011250Y+009350
X+014250Y+008500
X+012500Y+006250
T06
X-011043Y+007261
X-010043Y+006761
X-011043Y+006261
X-010043Y+005761
T07
X-013543Y+008511
X-013543Y+004511
M30
